<svg xmlns="http://www.w3.org/2000/svg" width="446.872" height="227.252" viewBox="0 0 446.872 227.252">
  <g id="dot-fade" transform="translate(306.872 -4544.938)">
    <g id="dots" transform="translate(623.056 4491.28) rotate(90)">
      <circle id="Ellipse_1" data-name="Ellipse 1" cx="7.302" cy="7.302" r="7.302" transform="translate(53.658 483.056)" fill="#fff"/>
      <circle id="Ellipse_30" data-name="Ellipse 30" cx="7.302" cy="7.302" r="7.302" transform="translate(53.658 699.191)" fill="#fff"/>
      <circle id="Ellipse_6" data-name="Ellipse 6" cx="7.302" cy="7.302" r="7.302" transform="translate(97.469 483.056)" fill="#fff"/>
      <circle id="Ellipse_29" data-name="Ellipse 29" cx="7.302" cy="7.302" r="7.302" transform="translate(97.469 699.191)" fill="#fff"/>
      <circle id="Ellipse_11" data-name="Ellipse 11" cx="7.302" cy="7.302" r="7.302" transform="translate(140.306 483.056)" fill="#fff"/>
      <circle id="Ellipse_28" data-name="Ellipse 28" cx="7.302" cy="7.302" r="7.302" transform="translate(140.306 699.191)" fill="#fff"/>
      <circle id="Ellipse_2" data-name="Ellipse 2" cx="7.302" cy="7.302" r="7.302" transform="translate(53.658 525.894)" fill="#fff"/>
      <circle id="Ellipse_27" data-name="Ellipse 27" cx="7.302" cy="7.302" r="7.302" transform="translate(53.658 742.028)" fill="#fff"/>
      <circle id="Ellipse_7" data-name="Ellipse 7" cx="7.302" cy="7.302" r="7.302" transform="translate(97.469 525.894)" fill="#fff"/>
      <circle id="Ellipse_26" data-name="Ellipse 26" cx="7.302" cy="7.302" r="7.302" transform="translate(97.469 742.028)" fill="#fff"/>
      <circle id="Ellipse_12" data-name="Ellipse 12" cx="7.302" cy="7.302" r="7.302" transform="translate(140.306 525.894)" fill="#fff"/>
      <circle id="Ellipse_25" data-name="Ellipse 25" cx="7.302" cy="7.302" r="7.302" transform="translate(140.306 742.028)" fill="#fff"/>
      <circle id="Ellipse_3" data-name="Ellipse 3" cx="7.302" cy="7.302" r="7.302" transform="translate(53.658 569.705)" fill="#fff"/>
      <circle id="Ellipse_24" data-name="Ellipse 24" cx="7.302" cy="7.302" r="7.302" transform="translate(53.658 785.839)" fill="#fff"/>
      <circle id="Ellipse_8" data-name="Ellipse 8" cx="7.302" cy="7.302" r="7.302" transform="translate(97.469 569.705)" fill="#fff"/>
      <circle id="Ellipse_23" data-name="Ellipse 23" cx="7.302" cy="7.302" r="7.302" transform="translate(97.469 785.839)" fill="#fff"/>
      <circle id="Ellipse_13" data-name="Ellipse 13" cx="7.302" cy="7.302" r="7.302" transform="translate(140.306 569.705)" fill="#fff"/>
      <circle id="Ellipse_22" data-name="Ellipse 22" cx="7.302" cy="7.302" r="7.302" transform="translate(140.306 785.839)" fill="#fff"/>
      <circle id="Ellipse_4" data-name="Ellipse 4" cx="7.302" cy="7.302" r="7.302" transform="translate(53.658 612.542)" fill="#fff"/>
      <circle id="Ellipse_21" data-name="Ellipse 21" cx="7.302" cy="7.302" r="7.302" transform="translate(53.658 828.677)" fill="#fff"/>
      <circle id="Ellipse_9" data-name="Ellipse 9" cx="7.302" cy="7.302" r="7.302" transform="translate(97.469 612.542)" fill="#fff"/>
      <circle id="Ellipse_20" data-name="Ellipse 20" cx="7.302" cy="7.302" r="7.302" transform="translate(97.469 828.677)" fill="#fff"/>
      <circle id="Ellipse_14" data-name="Ellipse 14" cx="7.302" cy="7.302" r="7.302" transform="translate(140.306 612.542)" fill="#fff"/>
      <circle id="Ellipse_19" data-name="Ellipse 19" cx="7.302" cy="7.302" r="7.302" transform="translate(140.306 828.677)" fill="#fff"/>
      <ellipse id="Ellipse_5" data-name="Ellipse 5" cx="7.302" cy="6.815" rx="7.302" ry="6.815" transform="translate(53.658 656.353)" fill="#fff"/>
      <circle id="Ellipse_18" data-name="Ellipse 18" cx="7.302" cy="7.302" r="7.302" transform="translate(53.658 872.488)" fill="#fff"/>
      <circle id="Ellipse_31" data-name="Ellipse 31" cx="7.302" cy="7.302" r="7.302" transform="translate(53.658 915.325)" fill="#fff"/>
      <ellipse id="Ellipse_10" data-name="Ellipse 10" cx="7.302" cy="6.815" rx="7.302" ry="6.815" transform="translate(97.469 656.353)" fill="#fff"/>
      <circle id="Ellipse_17" data-name="Ellipse 17" cx="7.302" cy="7.302" r="7.302" transform="translate(97.469 872.488)" fill="#fff"/>
      <circle id="Ellipse_32" data-name="Ellipse 32" cx="7.302" cy="7.302" r="7.302" transform="translate(97.469 915.325)" fill="#fff"/>
      <ellipse id="Ellipse_15" data-name="Ellipse 15" cx="7.302" cy="6.815" rx="7.302" ry="6.815" transform="translate(140.306 656.353)" fill="#fff"/>
      <circle id="Ellipse_16" data-name="Ellipse 16" cx="7.302" cy="7.302" r="7.302" transform="translate(140.306 872.488)" fill="#fff"/>
      <circle id="Ellipse_33" data-name="Ellipse 33" cx="7.302" cy="7.302" r="7.302" transform="translate(140.306 915.325)" fill="#fff"/>
    </g>
    <g id="dots-2" data-name="dots" transform="translate(623.056 4617.28) rotate(90)" opacity="0.64">
      <circle id="Ellipse_1-2" data-name="Ellipse 1" cx="7.302" cy="7.302" r="7.302" transform="translate(53.658 483.056)" fill="#fff"/>
      <circle id="Ellipse_30-2" data-name="Ellipse 30" cx="7.302" cy="7.302" r="7.302" transform="translate(53.658 699.191)" fill="#fff"/>
      <circle id="Ellipse_6-2" data-name="Ellipse 6" cx="7.302" cy="7.302" r="7.302" transform="translate(97.469 483.056)" fill="#fff"/>
      <circle id="Ellipse_29-2" data-name="Ellipse 29" cx="7.302" cy="7.302" r="7.302" transform="translate(97.469 699.191)" fill="#fff"/>
      <circle id="Ellipse_11-2" data-name="Ellipse 11" cx="7.302" cy="7.302" r="7.302" transform="translate(140.306 483.056)" fill="#fff"/>
      <circle id="Ellipse_28-2" data-name="Ellipse 28" cx="7.302" cy="7.302" r="7.302" transform="translate(140.306 699.191)" fill="#fff"/>
      <circle id="Ellipse_2-2" data-name="Ellipse 2" cx="7.302" cy="7.302" r="7.302" transform="translate(53.658 525.894)" fill="#fff"/>
      <circle id="Ellipse_27-2" data-name="Ellipse 27" cx="7.302" cy="7.302" r="7.302" transform="translate(53.658 742.028)" fill="#fff"/>
      <circle id="Ellipse_7-2" data-name="Ellipse 7" cx="7.302" cy="7.302" r="7.302" transform="translate(97.469 525.894)" fill="#fff"/>
      <circle id="Ellipse_26-2" data-name="Ellipse 26" cx="7.302" cy="7.302" r="7.302" transform="translate(97.469 742.028)" fill="#fff"/>
      <circle id="Ellipse_12-2" data-name="Ellipse 12" cx="7.302" cy="7.302" r="7.302" transform="translate(140.306 525.894)" fill="#fff"/>
      <circle id="Ellipse_25-2" data-name="Ellipse 25" cx="7.302" cy="7.302" r="7.302" transform="translate(140.306 742.028)" fill="#fff"/>
      <circle id="Ellipse_3-2" data-name="Ellipse 3" cx="7.302" cy="7.302" r="7.302" transform="translate(53.658 569.705)" fill="#fff"/>
      <circle id="Ellipse_24-2" data-name="Ellipse 24" cx="7.302" cy="7.302" r="7.302" transform="translate(53.658 785.839)" fill="#fff"/>
      <circle id="Ellipse_8-2" data-name="Ellipse 8" cx="7.302" cy="7.302" r="7.302" transform="translate(97.469 569.705)" fill="#fff"/>
      <circle id="Ellipse_23-2" data-name="Ellipse 23" cx="7.302" cy="7.302" r="7.302" transform="translate(97.469 785.839)" fill="#fff"/>
      <circle id="Ellipse_13-2" data-name="Ellipse 13" cx="7.302" cy="7.302" r="7.302" transform="translate(140.306 569.705)" fill="#fff"/>
      <circle id="Ellipse_22-2" data-name="Ellipse 22" cx="7.302" cy="7.302" r="7.302" transform="translate(140.306 785.839)" fill="#fff"/>
      <circle id="Ellipse_4-2" data-name="Ellipse 4" cx="7.302" cy="7.302" r="7.302" transform="translate(53.658 612.542)" fill="#fff"/>
      <circle id="Ellipse_21-2" data-name="Ellipse 21" cx="7.302" cy="7.302" r="7.302" transform="translate(53.658 828.677)" fill="#fff"/>
      <circle id="Ellipse_9-2" data-name="Ellipse 9" cx="7.302" cy="7.302" r="7.302" transform="translate(97.469 612.542)" fill="#fff"/>
      <circle id="Ellipse_20-2" data-name="Ellipse 20" cx="7.302" cy="7.302" r="7.302" transform="translate(97.469 828.677)" fill="#fff"/>
      <circle id="Ellipse_14-2" data-name="Ellipse 14" cx="7.302" cy="7.302" r="7.302" transform="translate(140.306 612.542)" fill="#fff"/>
      <circle id="Ellipse_19-2" data-name="Ellipse 19" cx="7.302" cy="7.302" r="7.302" transform="translate(140.306 828.677)" fill="#fff"/>
      <ellipse id="Ellipse_5-2" data-name="Ellipse 5" cx="7.302" cy="6.815" rx="7.302" ry="6.815" transform="translate(53.658 656.353)" fill="#fff"/>
      <circle id="Ellipse_18-2" data-name="Ellipse 18" cx="7.302" cy="7.302" r="7.302" transform="translate(53.658 872.488)" fill="#fff"/>
      <circle id="Ellipse_31-2" data-name="Ellipse 31" cx="7.302" cy="7.302" r="7.302" transform="translate(53.658 915.325)" fill="#fff"/>
      <ellipse id="Ellipse_10-2" data-name="Ellipse 10" cx="7.302" cy="6.815" rx="7.302" ry="6.815" transform="translate(97.469 656.353)" fill="#fff"/>
      <circle id="Ellipse_17-2" data-name="Ellipse 17" cx="7.302" cy="7.302" r="7.302" transform="translate(97.469 872.488)" fill="#fff"/>
      <circle id="Ellipse_32-2" data-name="Ellipse 32" cx="7.302" cy="7.302" r="7.302" transform="translate(97.469 915.325)" fill="#fff"/>
      <ellipse id="Ellipse_15-2" data-name="Ellipse 15" cx="7.302" cy="6.815" rx="7.302" ry="6.815" transform="translate(140.306 656.353)" fill="#fff"/>
      <circle id="Ellipse_16-2" data-name="Ellipse 16" cx="7.302" cy="7.302" r="7.302" transform="translate(140.306 872.488)" fill="#fff"/>
      <circle id="Ellipse_33-2" data-name="Ellipse 33" cx="7.302" cy="7.302" r="7.302" transform="translate(140.306 915.325)" fill="#fff"/>
    </g>
  </g>
</svg>
