<svg xmlns="http://www.w3.org/2000/svg" width="302.5" height="381" viewBox="0 0 302.5 381">
  <g id="element-2" transform="translate(-1823 -1734)">
    <g id="Path_9" data-name="Path 9" transform="translate(1823 1812.5)" fill="none">
      <path d="M151.25,0A151.25,151.25,0,1,1,0,151.25,151.25,151.25,0,0,1,151.25,0Z" stroke="none"/>
      <path d="M 151.25 9 C 72.81309509277344 9 9 72.81309509277344 9 151.25 C 9 229.6868896484375 72.81309509277344 293.5 151.25 293.5 C 229.6868896484375 293.5 293.5 229.6868896484375 293.5 151.25 C 293.5 72.81309509277344 229.6868896484375 9 151.25 9 M 151.25 0 C 234.7830505371094 0 302.5 67.71690368652344 302.5 151.25 C 302.5 234.7830505371094 234.7830505371094 302.5 151.25 302.5 C 67.71690368652344 302.5 0 234.7830505371094 0 151.25 C 0 67.71690368652344 67.71690368652344 0 151.25 0 Z" stroke="none" fill="#f7c6c9"/>
    </g>
    <text id="_" data-name="+" transform="translate(1839 1804)" fill="#fff" font-size="72" font-family="Montserrat-Bold, Montserrat" font-weight="700" opacity="0.75"><tspan x="0" y="0">+</tspan></text>
  </g>
</svg>
