<svg xmlns="http://www.w3.org/2000/svg" xmlns:xlink="http://www.w3.org/1999/xlink" width="303.295" height="308.153" viewBox="0 0 303.295 308.153">
  <defs>
    <clipPath id="clip-path">
      <circle id="Ellipse_41" data-name="Ellipse 41" cx="116.033" cy="116.033" r="116.033" transform="matrix(0.383, -0.924, 0.924, 0.383, 0, 214.338)" fill="none"/>
    </clipPath>
  </defs>
  <g id="Group_5" data-name="Group 5" transform="translate(123.455 -1228)">
    <g id="Path_42" data-name="Path 42" transform="translate(123 1228)" fill="none" opacity="0.52">
      <path d="M23,0A23,23,0,1,1,0,23,23,23,0,0,1,23,0Z" stroke="none"/>
      <path d="M 23 5 C 18.1920337677002 5 13.67183303833008 6.872322082519531 10.27207946777344 10.27207946777344 C 6.872322082519531 13.67183303833008 5 18.1920337677002 5 23 C 5 27.8079662322998 6.872322082519531 32.32816696166992 10.27207946777344 35.72792053222656 C 13.67183303833008 39.12767791748047 18.1920337677002 41 23 41 C 27.8079662322998 41 32.32816696166992 39.12767791748047 35.72792053222656 35.72792053222656 C 39.12767791748047 32.32816696166992 41 27.8079662322998 41 23 C 41 18.1920337677002 39.12767791748047 13.67183303833008 35.72792053222656 10.27207946777344 C 32.32816696166992 6.872322082519531 27.8079662322998 5 23 5 M 23 0 C 35.70254516601563 0 46 10.29745483398438 46 23 C 46 35.70254516601563 35.70254516601563 46 23 46 C 10.29745483398438 46 0 35.70254516601563 0 23 C 0 10.29745483398438 10.29745483398438 0 23 0 Z" stroke="none" fill="#fff"/>
    </g>
    <g id="Layer_2" data-name="Layer 2" transform="translate(-144.631 1206.94)">
      <g id="BACKGROUND" transform="translate(21.176 25.917)">
        <g id="Group_4" data-name="Group 4" clip-path="url(#clip-path)">
          <rect id="Rectangle_16" data-name="Rectangle 16" width="426.787" height="10.059" transform="matrix(0.37, 0.929, -0.929, 0.37, 166.279, -87.179)" fill="#fff"/>
          <rect id="Rectangle_17" data-name="Rectangle 17" width="426.787" height="10.059" transform="matrix(0.37, 0.929, -0.929, 0.37, 143.479, -78.094)" fill="#fff"/>
          <rect id="Rectangle_18" data-name="Rectangle 18" width="426.787" height="10.059" transform="matrix(0.37, 0.929, -0.929, 0.37, 120.644, -69.008)" fill="#fff"/>
          <rect id="Rectangle_19" data-name="Rectangle 19" width="426.787" height="10.059" transform="matrix(0.37, 0.929, -0.929, 0.37, 97.831, -59.921)" fill="#fff"/>
          <rect id="Rectangle_20" data-name="Rectangle 20" width="426.787" height="10.059" transform="matrix(0.37, 0.929, -0.929, 0.37, 75.03, -50.835)" fill="#fff"/>
          <rect id="Rectangle_21" data-name="Rectangle 21" width="426.787" height="10.059" transform="matrix(0.37, 0.929, -0.929, 0.37, 52.196, -41.75)" fill="#fff"/>
          <rect id="Rectangle_22" data-name="Rectangle 22" width="426.787" height="10.059" transform="matrix(0.37, 0.929, -0.929, 0.37, 29.395, -32.665)" fill="#fff"/>
          <rect id="Rectangle_23" data-name="Rectangle 23" width="426.787" height="10.059" transform="matrix(0.37, 0.929, -0.929, 0.37, 6.563, -23.533)" fill="#fff"/>
          <rect id="Rectangle_24" data-name="Rectangle 24" width="426.787" height="10.059" transform="matrix(0.37, 0.929, -0.929, 0.37, -16.25, -14.479)" fill="#fff"/>
          <rect id="Rectangle_25" data-name="Rectangle 25" width="426.787" height="10.059" transform="matrix(0.37, 0.929, -0.929, 0.37, -39.084, -5.394)" fill="#fff"/>
          <rect id="Rectangle_26" data-name="Rectangle 26" width="426.787" height="10.059" transform="matrix(0.37, 0.929, -0.929, 0.37, -61.885, 3.692)" fill="#fff"/>
        </g>
      </g>
    </g>
  </g>
</svg>
