<svg xmlns="http://www.w3.org/2000/svg" width="81" height="81" viewBox="0 0 81 81">
  <g id="element-4" fill="none">
    <path d="M40.5,0A40.5,40.5,0,1,1,0,40.5,40.5,40.5,0,0,1,40.5,0Z" stroke="none"/>
    <path d="M 40.5 4 C 35.57077026367188 4 30.79111480712891 4.964500427246094 26.29378509521484 6.866714477539063 C 21.94787216186523 8.704872131347656 18.04398727416992 11.33721160888672 14.69059753417969 14.69059753417969 C 11.33721160888672 18.04398727416992 8.704872131347656 21.94787216186523 6.866714477539063 26.29378509521484 C 4.964500427246094 30.79111480712891 4 35.57077026367188 4 40.5 C 4 45.42922973632813 4.964500427246094 50.20888519287109 6.866714477539063 54.70621490478516 C 8.704872131347656 59.05212783813477 11.33721160888672 62.95601654052734 14.69059753417969 66.30940246582031 C 18.04398727416992 69.66278839111328 21.94787216186523 72.29512786865234 26.29378509521484 74.13328552246094 C 30.79111480712891 76.03549957275391 35.57077026367188 77 40.5 77 C 45.42922973632813 77 50.20888519287109 76.03549957275391 54.70621490478516 74.13328552246094 C 59.05212783813477 72.29512786865234 62.95601654052734 69.66278839111328 66.30940246582031 66.30940246582031 C 69.66278839111328 62.95601654052734 72.29512786865234 59.05212783813477 74.13328552246094 54.70621490478516 C 76.03549957275391 50.20888519287109 77 45.42922973632813 77 40.5 C 77 35.57077026367188 76.03549957275391 30.79111480712891 74.13328552246094 26.29378509521484 C 72.29512786865234 21.94787216186523 69.66278839111328 18.04398727416992 66.30940246582031 14.69059753417969 C 62.95601654052734 11.33721160888672 59.05212783813477 8.704872131347656 54.70621490478516 6.866714477539063 C 50.20888519287109 4.964500427246094 45.42922973632813 4 40.5 4 M 40.5 0 C 62.86753082275391 0 81 18.13247299194336 81 40.5 C 81 62.86753082275391 62.86753082275391 81 40.5 81 C 18.13247299194336 81 0 62.86753082275391 0 40.5 C 0 18.13247299194336 18.13247299194336 0 40.5 0 Z" stroke="none" fill="#f7c6c9"/>
  </g>
</svg>
